ply
format ascii 1.0
comment VCGLIB generated
element vertex 12
property float x
property float y
property float z
element face 14
property list uchar int vertex_indices
end_header
41.51 -69.91 -58.99 
-56.58 -13.71 -49.73 
61.52 -28.13 42.18 
-52.3 46.75 -47.54 
51.97 35.24 -47.57 
-56.88 -51.62 25.38 
9.21 1.54 -87.5 
4.82 72.26 -40.95 
12.37 -83.5 60.31 
70.6 -8.82 -19.85 
-19.44 -71.28 -21.6 
-64.05 31.5 6.3 
3 1 3 6 
3 7 4 6 
3 7 6 3 
3 6 10 1 
3 4 9 6 
3 0 10 6 
3 0 6 9 
3 3 1 11 
3 10 5 1 
3 2 0 9 
3 0 8 10 
3 1 5 11 
3 8 0 2 
3 10 8 5 
