ply
format ascii 1.0
element vertex 16
property float x
property float y
property float z
element face 28
property list uchar int vertex_index
end_header
0.00 0.00 90.30
41.51 -69.91 -58.99
-57.92 1.41 52.27
-56.58 -13.71 -49.73
61.52 -28.13 42.18
-52.30 46.75 -47.54
51.97 35.24 -47.57
-56.88 -51.62 25.38
56.77 70.53 46.44
-35.21 66.50 59.99
9.21 1.54 -87.50
4.82 72.26 -40.95
12.37 -83.50 60.31
70.60 -8.82 -19.85
-19.44 -71.28 -21.60
-64.05 31.50 6.30
3 3 5 10
3 11 6 10
3 11 10 5
3 10 14 3
3 6 13 10
3 1 14 10
3 1 10 13
3 5 3 15
3 5 15 11
3 11 8 6
3 14 7 3
3 6 8 13
3 4 1 13
3 1 12 14
3 3 7 15
3 9 11 15
3 12 1 4
3 8 11 9
3 14 12 7
3 4 13 8
3 2 15 7
3 2 9 15
3 12 0 7
3 7 0 2
3 0 4 8
3 0 8 9
3 4 0 12
3 9 2 0
