<?xml version="1.0" encoding="UTF-8" standalone="no"?>
<!-- Created with Inkscape (http://www.inkscape.org/) -->

<svg
   xmlns:dc="http://purl.org/dc/elements/1.1/"
   xmlns:cc="http://creativecommons.org/ns#"
   xmlns:rdf="http://www.w3.org/1999/02/22-rdf-syntax-ns#"
   xmlns:svg="http://www.w3.org/2000/svg"
   xmlns="http://www.w3.org/2000/svg"
   xmlns:sodipodi="http://sodipodi.sourceforge.net/DTD/sodipodi-0.dtd"
   xmlns:inkscape="http://www.inkscape.org/namespaces/inkscape"
   width="298.13385"
   height="190.55905"
   id="svg3223"
   version="1.1"
   inkscape:version="0.48.5 r10040"
   sodipodi:docname="New document 2">
  <defs
     id="defs3225" />
  <sodipodi:namedview
     id="base"
     pagecolor="#ffffff"
     bordercolor="#666666"
     borderopacity="1.0"
     inkscape:pageopacity="0.0"
     inkscape:pageshadow="2"
     inkscape:zoom="1.979899"
     inkscape:cx="50.516039"
     inkscape:cy="105.61651"
     inkscape:document-units="px"
     inkscape:current-layer="g84"
     showgrid="false"
     fit-margin-top="0"
     fit-margin-left="0"
     fit-margin-right="0"
     fit-margin-bottom="0"
     inkscape:window-width="1600"
     inkscape:window-height="834"
     inkscape:window-x="0"
     inkscape:window-y="27"
     inkscape:window-maximized="1" />
  <metadata
     id="metadata3228">
    <rdf:RDF>
      <cc:Work
         rdf:about="">
        <dc:format>image/svg+xml</dc:format>
        <dc:type
           rdf:resource="http://purl.org/dc/dcmitype/StillImage" />
        <dc:title></dc:title>
      </cc:Work>
    </rdf:RDF>
  </metadata>
  <g
     inkscape:label="Layer 1"
     inkscape:groupmode="layer"
     id="layer1"
     transform="translate(-1.7716535,-860.03148)">
    <g
       style="fill:none"
       transform="matrix(3.543307,0,0,3.543307,1.7716535,860.03148)"
       id="g84">
      <path
         d="m 1.09,0.69 81.49,0 -49.32,52.09 z"
         id="path86"
         inkscape:connector-curvature="0"
         style="stroke:#000000" />
      <path
         d="m 0,0 m 26.1,5.68 0,3.9 3.9,0 0,-3.9 -3.9,0 m 28.05,0 0,3.9 3.9,0 0,-3.9 -3.9,0 M 84.14,0 m -19.7,12.66 -2.83,-2.68 -2.68,2.83 2.83,2.68 2.68,-2.83 m -16.97,17.93 -2.83,-2.68 -2.68,2.83 2.83,2.68 2.68,-2.83 M 33.22,53.78 m -5.44,-19.11 3.32,-2.05 -2.05,-3.32 -3.32,2.05 2.05,3.32 m -11.07,-17.93 3.32,-2.05 -2.05,-3.32 -3.32,2.05 2.05,3.32"
         id="path88"
         inkscape:connector-curvature="0"
         style="stroke:#0000ff;stroke-width:0.99991333;stroke-miterlimit:4;stroke-dasharray:none" />
      <path
         d="m 34.83,2.69 m 1.5,0 m 0.5,0 m 0.75,0 0,3 m 0.75,-3 m 0.5,0 m 0,3 1.5,-3 0,3 -1.5,0 0,-3 1.5,0 m 0.5,0 m 0,1.5 1.5,0 m 0,-1.5 m 0.5,0 m 0,1.5 1.5,0 m 0,-1.5 m 0.5,0 m 0,1.5 1.5,0 m 0,-1.5 m 0.5,0 1.5,1.5 -1.5,1.5 m 1.5,-3 m 0.5,0 m -14,4 m 1.5,0 m 0.5,0 m 0.75,0 0,3 m 0.75,-3 m 0.5,0 m 1.5,1.5 -1.5,0 1.5,-1.5 0,3 m 0,-3 m 0.5,0 m 1.5,0 m 0.5,0 m 1.5,0 m 0.5,0 1.5,0 -1.5,1.5 1.5,0 0,1.5 -1.5,0 m 1.5,-3 m 0.5,0 m 0,1.5 1.5,0 0,1.5 -1.5,0 0,-3 1.5,0 0,1.5 m 0,-1.5 m 0.5,0 m -14,4 m 1.5,0 m 0.5,0 m 1.5,0 m 0.5,0 1.5,0 -1.5,1.5 1.5,0 0,1.5 -1.5,0 m 1.5,-3 m 0.5,0 m 1.5,0 m 0.5,0 m 1.5,0 m 0.5,0 1.5,0 -1.5,1.5 1.5,0 0,1.5 -1.5,0 m 1.5,-3 m 0.5,0 m 1.5,0 -1.5,0 0,3 1.5,0 0,-1.5 -1.5,0 m 1.5,-1.5 m 0.5,0 m -14,4 m 1.5,0 m 0.5,0 m 0.75,0 0,3 m 0.75,-3 m 0.5,0 m 0,1.5 1.5,0 0,1.5 -1.5,0 0,-3 1.5,0 0,1.5 m 0,-1.5 m 0.5,0 m 1.5,0 m 0.5,0 m 1.5,0 m 0.5,0 1.5,0 -1.5,1.5 1.5,0 0,1.5 -1.5,0 m 1.5,-3 m 0.5,0 m 0.75,0 0,3 m 0.75,-3 m 0.5,0"
         id="path90"
         inkscape:connector-curvature="0"
         style="fill:none;stroke:#ff0000;stroke-width:0.30000001" />
    </g>
  </g>
</svg>
